<svg width="74" height="74" viewBox="0 0 74 74" fill="none" xmlns="http://www.w3.org/2000/svg">
<path d="M55.25 23.5C55.25 18.5935 53.3009 13.8879 49.8315 10.4185C46.3621 6.9491 41.6565 5 36.75 5C31.8435 5 27.1379 6.9491 23.6685 10.4185C20.1991 13.8879 18.25 18.5935 18.25 23.5C18.25 45.0833 9 51.25 9 51.25H64.5C64.5 51.25 55.25 45.0833 55.25 23.5Z" stroke="black" stroke-width="4" stroke-linecap="round" stroke-linejoin="round"/>
<path d="M42.3342 64.75C41.7921 65.6845 41.014 66.4602 40.0779 66.9994C39.1417 67.5386 38.0803 67.8224 37 67.8224C35.9197 67.8224 34.8583 67.5386 33.9221 66.9994C32.986 66.4602 32.2079 65.6845 31.6658 64.75" stroke="#010101" stroke-width="4" stroke-linecap="round" stroke-linejoin="round"/>
</svg>
